<?xml version="1.0" standalone="no"?>
<!DOCTYPE svg PUBLIC "-//W3C//DTD SVG 20010904//EN"
 "http://www.w3.org/TR/2001/REC-SVG-20010904/DTD/svg10.dtd">
<svg version="1.0" xmlns="http://www.w3.org/2000/svg"
 width="960.000000pt" height="960.000000pt" viewBox="0 0 960.000000 960.000000"
 preserveAspectRatio="xMidYMid meet">

<g transform="translate(0.000000,960.000000) scale(0.100000,-0.100000)"
fill="#000000" stroke="none">
<path d="M4740 8374 c-152 -41 -232 -144 -233 -299 -1 -68 4 -88 28 -137 32
-65 60 -95 130 -135 l50 -29 0 -210 0 -209 -270 -5 c-290 -6 -304 -8 -405 -67
-158 -91 -254 -247 -275 -445 l-6 -66 -412 -4 c-398 -4 -414 -5 -482 -27 -197
-65 -339 -188 -427 -369 -49 -102 -68 -210 -68 -398 l0 -131 -47 -7 c-95 -13
-210 -105 -256 -204 -21 -45 -22 -59 -22 -417 l0 -370 26 -56 c15 -31 43 -74
62 -96 40 -44 127 -91 190 -101 l42 -8 7 -174 c8 -208 29 -302 88 -402 103
-172 264 -291 452 -332 66 -15 253 -16 1933 -14 l1860 3 73 27 c111 40 178 84
273 178 69 68 94 101 124 163 60 126 67 163 74 367 l6 184 40 7 c112 20 217
100 257 197 23 56 23 61 23 432 0 373 0 375 -23 423 -45 91 -159 178 -253 192
-33 5 -37 9 -43 43 -3 20 -6 90 -6 155 0 149 -20 249 -72 357 -57 119 -177
239 -298 298 -153 75 -155 75 -617 80 l-413 3 0 68 c0 121 -52 244 -149 353
-40 44 -72 67 -148 105 l-98 48 -255 3 c-140 1 -265 5 -278 7 l-22 5 2 208 3
207 32 15 c236 111 243 448 11 558 -79 38 -137 45 -208 26z m706 -1230 c138
-61 211 -165 228 -321 l5 -53 -864 0 -865 0 0 38 c1 142 94 283 223 336 l62
25 576 1 577 0 58 -26z m1269 -583 c175 -69 294 -199 340 -371 12 -46 15 -203
15 -979 0 -1017 2 -983 -62 -1104 -64 -120 -219 -232 -357 -257 -34 -6 -702
-10 -1850 -10 -1962 0 -1833 -4 -1967 59 -134 63 -251 222 -275 371 -6 42 -9
395 -7 980 l3 915 23 65 c32 89 72 148 148 219 68 64 89 78 169 107 48 18 114
19 1405 24 745 3 1580 5 1855 5 l500 -1 60 -23z m-4347 -1349 c2 -425 2 -442
-16 -442 -28 0 -99 55 -117 90 -14 26 -15 76 -13 365 l3 334 30 32 c35 37 86
70 100 66 6 -2 11 -162 13 -445z m4985 388 l47 -49 0 -331 c0 -278 -2 -336
-15 -361 -18 -34 -90 -89 -117 -89 -17 0 -18 19 -18 438 0 241 3 442 7 445 13
14 49 -6 96 -53z"/>
<path d="M3544 6251 c-205 -33 -362 -166 -436 -371 l-23 -65 0 -595 c0 -591 0
-595 23 -667 45 -145 134 -254 261 -322 121 -64 49 -61 1441 -61 1392 0 1320
-3 1441 61 119 64 206 164 258 297 l26 67 3 569 c2 364 -1 595 -8 640 -28 191
-169 356 -366 428 l-59 22 -1255 2 c-690 1 -1278 -1 -1306 -5z m2609 -216 c70
-35 140 -109 176 -185 l26 -55 3 -545 c4 -593 2 -613 -51 -713 -35 -68 -88
-115 -173 -154 l-59 -28 -1259 -3 -1258 -2 -72 34 c-85 41 -147 100 -184 176
l-27 55 -3 587 -3 587 29 63 c35 77 80 130 139 165 95 55 20 52 1388 50 l1270
-2 58 -30z"/>
<path d="M3910 5504 c-144 -52 -230 -181 -217 -326 14 -155 138 -275 296 -285
91 -7 166 22 236 91 158 154 110 415 -93 512 -52 24 -165 29 -222 8z"/>
<path d="M5495 5492 c-122 -60 -180 -152 -180 -287 0 -65 5 -90 26 -136 31
-66 83 -119 147 -150 68 -33 198 -33 263 -1 70 34 125 87 156 150 24 48 28 69
28 137 -1 99 -28 166 -90 224 -68 63 -118 84 -210 88 -73 4 -86 1 -140 -25z"/>
<path d="M3535 2940 c-3 -30 -4 -212 -1 -405 l4 -350 91 -1 c89 -1 91 -1 91
22 0 30 11 30 71 -2 43 -24 56 -26 127 -22 93 5 148 32 206 99 51 60 69 124
64 223 -6 125 -55 203 -162 258 -60 32 -176 32 -229 1 -21 -13 -42 -23 -48
-23 -5 0 -9 55 -9 130 l0 129 -99 -2 -99 -2 -7 -55z m411 -353 c114 -104 -10
-302 -145 -232 -42 21 -64 76 -59 143 4 48 10 60 41 89 30 27 45 33 82 33 37
0 52 -6 81 -33z"/>
<path d="M7424 2988 c-3 -5 -5 -57 -4 -116 3 -159 8 -147 -52 -115 -128 65
-290 14 -365 -115 -24 -40 -28 -60 -31 -143 -4 -81 -1 -104 16 -142 52 -116
125 -167 254 -175 70 -4 81 -2 124 23 l47 28 18 -24 c16 -21 27 -24 103 -28
l86 -3 0 410 0 409 -96 0 c-52 0 -97 -4 -100 -9z m-97 -369 c103 -39 132 -176
52 -243 -41 -35 -75 -42 -123 -25 -104 36 -114 192 -17 256 38 26 48 27 88 12z"/>
<path d="M5336 2959 c-127 -19 -245 -99 -296 -202 -63 -129 -62 -258 2 -380
102 -190 365 -262 573 -157 66 34 115 73 115 93 0 7 -27 36 -60 66 l-60 53
-47 -31 c-65 -43 -110 -55 -176 -47 -74 10 -116 39 -149 105 -64 126 -15 265
111 318 58 25 160 0 243 -59 14 -10 26 -4 73 37 31 26 59 55 63 63 7 20 -58
78 -123 108 -27 13 -79 28 -115 33 -72 12 -71 12 -154 0z"/>
<path d="M2012 2568 l3 -383 40 -3 c22 -2 68 -1 102 3 l62 7 3 96 3 97 60 3
60 3 62 -96 c40 -61 72 -99 88 -105 36 -14 205 -13 205 0 0 14 -96 157 -129
193 l-26 28 53 49 c29 26 61 68 72 92 24 54 27 169 5 222 -24 56 -84 117 -145
145 -53 24 -64 25 -288 29 l-232 4 2 -384z m435 180 c22 -22 27 -36 27 -78 1
-46 -3 -55 -32 -81 -31 -28 -36 -29 -127 -29 l-95 0 0 111 0 111 100 -4 c93
-3 101 -5 127 -30z"/>
<path d="M3039 2780 c-107 -19 -200 -84 -241 -168 -18 -37 -23 -64 -23 -128 0
-70 4 -88 30 -139 54 -106 162 -165 303 -165 133 0 244 66 298 175 24 50 26
63 22 143 -3 73 -9 96 -31 134 -66 114 -214 175 -358 148z m144 -187 c67 -60
59 -188 -15 -233 -115 -70 -234 65 -172 196 33 70 129 89 187 37z"/>
<path d="M4491 2775 c-137 -39 -222 -141 -229 -275 -6 -97 17 -161 82 -226 74
-73 142 -97 261 -92 141 7 229 59 287 171 54 105 27 259 -59 343 -79 77 -227
111 -342 79z m152 -164 c90 -34 95 -211 7 -256 -40 -21 -86 -19 -125 5 -73 45
-75 194 -3 244 25 18 84 21 121 7z"/>
<path d="M5975 2774 c-85 -19 -134 -39 -141 -58 -5 -14 44 -126 55 -126 3 1
31 9 61 20 30 11 78 19 106 20 44 0 57 -5 83 -29 17 -16 31 -38 31 -49 0 -19
-7 -21 -117 -24 -99 -2 -126 -7 -165 -26 -103 -51 -128 -179 -50 -258 77 -78
254 -89 311 -20 20 24 38 19 44 -12 7 -33 11 -34 115 -26 l72 6 0 182 c0 226
-10 270 -79 337 -71 68 -193 92 -326 63z m195 -378 c0 -72 -111 -116 -160 -64
-25 27 -26 50 -2 70 25 22 40 26 105 27 l57 1 0 -34z"/>
<path d="M6515 2748 c-3 -18 -5 -152 -3 -298 l3 -265 60 -3 c33 -2 79 -1 103
3 l42 6 0 155 c0 142 2 158 23 194 26 46 33 50 107 59 l55 6 3 88 3 87 -42 0
c-23 0 -56 -8 -73 -19 -17 -10 -46 -21 -65 -25 -31 -6 -33 -5 -27 19 l6 25
-94 0 -95 0 -6 -32z"/>
<path d="M1926 1488 c-19 -40 -50 -108 -70 -152 -43 -93 -49 -121 -23 -121 13
0 23 13 32 39 8 21 19 42 26 46 6 4 48 7 92 6 l81 -1 12 -40 c9 -33 16 -41 38
-43 25 -3 27 -1 21 19 -21 65 -147 314 -160 317 -11 3 -26 -19 -49 -70z m83
-66 c17 -38 31 -72 31 -75 0 -4 -29 -7 -65 -7 -36 0 -65 3 -65 8 0 13 55 142
61 142 3 0 20 -31 38 -68z"/>
<path d="M3453 1552 c-6 -4 -31 -61 -55 -127 -25 -66 -48 -120 -52 -120 -4 0
-26 55 -49 123 -37 106 -45 122 -64 122 -25 0 -26 3 46 -210 35 -105 41 -115
65 -118 15 -2 28 2 30 10 35 115 71 216 80 226 10 10 21 -13 53 -110 35 -109
43 -123 64 -126 23 -3 27 6 77 155 29 87 52 161 52 166 0 4 -7 7 -15 7 -18 0
-35 -33 -69 -135 -48 -145 -46 -145 -95 4 -23 72 -45 132 -49 135 -5 3 -13 2
-19 -2z"/>
<path d="M6599 1538 c-30 -55 -139 -303 -139 -315 0 -28 31 -11 51 30 12 23
26 45 31 48 5 3 44 5 86 3 l77 -2 20 -41 c14 -30 25 -41 42 -41 13 0 23 3 23
6 0 3 -29 69 -64 146 -91 196 -103 212 -127 166z m85 -175 c7 -22 5 -23 -58
-23 -79 0 -80 3 -35 92 l31 62 28 -54 c15 -30 31 -65 34 -77z"/>
<path d="M2194 1537 c-2 -7 -3 -80 -2 -162 3 -147 3 -150 26 -153 l22 -3 0
165 c0 160 -1 166 -20 166 -11 0 -23 -6 -26 -13z"/>
<path d="M2520 1438 c0 -62 -3 -137 -6 -165 -7 -52 -6 -53 19 -53 24 0 26 4
29 48 l3 47 73 6 c85 6 123 29 136 81 11 46 1 84 -30 113 -29 27 -64 35 -155
35 l-69 0 0 -112z m170 59 c49 -25 52 -104 5 -125 -14 -7 -50 -12 -80 -12
l-55 0 0 68 c0 38 3 72 7 75 11 12 97 7 123 -6z"/>
<path d="M2915 1527 c-133 -75 -105 -267 45 -307 78 -21 176 31 201 107 49
148 -109 277 -246 200z m169 -51 c32 -30 36 -39 36 -85 0 -63 -10 -83 -54
-110 -66 -41 -153 -15 -182 56 -21 50 -10 99 31 140 29 29 40 33 83 33 44 0
55 -5 86 -34z"/>
<path d="M3777 1543 c-4 -3 -7 -78 -7 -165 l0 -158 115 0 c108 0 115 1 115 20
0 18 -7 20 -84 20 -50 0 -88 4 -91 11 -13 20 -10 89 3 94 8 3 45 5 84 5 61 0
69 2 66 18 -3 14 -16 17 -86 20 -79 3 -82 4 -82 27 0 13 4 35 10 49 9 25 12
26 95 26 78 0 85 2 85 20 0 19 -7 20 -108 20 -60 0 -112 -3 -115 -7z"/>
<path d="M4103 1543 c-23 -4 -23 -6 -23 -164 l0 -160 23 3 c18 2 22 10 23 38
1 60 1 60 53 60 46 0 52 -3 78 -39 15 -22 40 -47 56 -56 25 -15 27 -15 27 2 0
10 -16 36 -34 58 l-34 40 34 31 c29 27 34 38 34 77 0 55 -27 92 -78 107 -36
10 -116 11 -159 3z m150 -45 c52 -27 61 -75 22 -113 -20 -21 -34 -25 -85 -25
l-60 0 0 75 0 75 51 0 c28 0 60 -5 72 -12z"/>
<path d="M4420 1385 l0 -165 115 0 c108 0 115 1 115 20 0 17 -8 19 -87 22
l-88 3 0 50 0 50 78 3 c56 2 77 6 77 16 0 20 -23 26 -96 26 l-64 0 0 50 0 50
91 0 c81 0 90 2 87 18 -3 15 -18 17 -116 20 l-112 3 0 -166z"/>
<path d="M4736 1534 c-8 -20 -8 -262 0 -291 6 -22 12 -23 92 -23 146 0 212 52
212 168 0 104 -77 162 -216 162 -65 0 -83 -3 -88 -16z m187 -38 c62 -26 85
-78 67 -146 -16 -58 -57 -83 -139 -84 l-66 -1 -3 109 c-1 61 0 116 2 123 7 17
97 17 139 -1z"/>
<path d="M5314 1535 c-37 -16 -81 -66 -90 -101 -10 -40 2 -114 23 -142 49 -66
122 -90 199 -67 26 8 51 20 55 27 5 7 9 41 9 76 0 55 -2 62 -20 62 -18 0 -20
-7 -20 -55 0 -50 -2 -56 -26 -65 -59 -23 -139 3 -165 53 -16 29 -13 105 6 133
36 55 128 69 190 28 22 -15 25 -15 31 -1 8 22 -3 37 -42 53 -41 17 -109 17
-150 -1z"/>
<path d="M5607 1543 c-11 -10 -8 -218 2 -246 16 -41 74 -79 123 -79 108 -2
147 58 148 225 l0 107 -25 0 -25 0 0 -114 c0 -109 -1 -116 -26 -145 -21 -26
-33 -31 -68 -31 -71 0 -80 19 -84 166 -3 110 -6 124 -21 124 -10 0 -21 -3 -24
-7z"/>
<path d="M5977 1544 c-4 -4 -7 -79 -7 -166 0 -157 0 -159 21 -156 21 3 22 8
22 163 0 133 -2 160 -14 163 -8 1 -18 0 -22 -4z"/>
<path d="M6119 1504 c-1 -27 -1 -94 -1 -149 1 -55 2 -108 2 -117 0 -16 11 -18
88 -18 114 0 166 24 200 90 27 54 28 92 3 146 -30 65 -74 86 -192 92 l-99 5
-1 -49z m201 -13 c43 -22 60 -53 60 -108 0 -78 -70 -129 -170 -121 l-45 3 -3
109 c-1 61 0 116 2 123 8 20 114 17 156 -6z"/>
<path d="M6850 1416 c0 -73 -3 -148 -6 -165 -6 -28 -4 -31 20 -31 l26 0 0 121
0 121 33 -40 c17 -22 61 -76 97 -121 96 -120 100 -116 100 85 l0 165 -22 -3
c-22 -3 -23 -7 -23 -110 0 -92 -6 -132 -18 -117 -2 2 -40 52 -85 110 -70 92
-97 119 -118 119 -2 0 -4 -60 -4 -134z"/>
<path d="M7276 1527 c-22 -14 -47 -40 -57 -58 -24 -45 -24 -124 -1 -169 24
-46 113 -94 158 -85 41 7 114 43 114 56 0 18 -28 21 -59 5 -110 -57 -230 55
-177 166 31 65 120 89 181 48 37 -25 45 -25 45 -2 0 35 -37 56 -103 60 -52 2
-68 -1 -101 -21z"/>
<path d="M7560 1385 l0 -165 115 0 c108 0 115 1 115 20 0 18 -8 20 -92 22
l-93 3 0 50 0 50 83 3 c72 2 83 5 80 20 -4 18 -5 18 -106 21 l-63 1 3 48 3 47
88 3 c79 3 87 5 87 22 0 19 -7 20 -110 20 l-110 0 0 -165z"/>
<path d="M2317 1364 c-4 -4 -7 -13 -7 -21 0 -9 18 -13 66 -13 57 0 65 2 62 18
-2 13 -15 18 -58 20 -31 2 -59 0 -63 -4z"/>
</g>
</svg>
